<svg version="1.1" id="mapa-gaspar" xmlns="http://www.w3.org/2000/svg" xmlns:xlink="http://www.w3.org/1999/xlink" x="0px" y="0px" viewBox="0 0 416 729.8" style="enable-background:new 0 0 416 729.8;" xml:space="preserve">
<style type="text/css">
	.st0{fill:#3E51DB;}
	.st1{fill:#FFFFFF;}
	.st2{font-family:'GothamMedium';}
	.st3{font-size:6px;}
	.st4{enable-background:new    ;}
	.st5{fill:#ED9D11;}
	.st6{fill:#CE2C3C;}
	.st7{fill:#2CA351;}
	.st8{fill:#C23AC9;}
	.st9{fill:#AAAAAA;}
	.st10{fill:none;stroke:#AAAAAA;stroke-width:0.5;stroke-miterlimit:10;}
	.st11{font-family:'GothamBold';}
	.st12{font-size:28.3375px;}
	.st13{font-size:8.5424px;}
</style>
<rect id="KgM0TEqkySFydk1tJHsN" x="26.4" y="143.6" class="st0" width="23.9" height="77.3"></rect>
<text transform="matrix(6.123234e-17 1 -1 6.123234e-17 36.125 163.1472)" class="st1 st2 st3">SECCIÓN 22</text>
<rect id="b68RBU7rDRPsqK1Hgp0n" x="26.4" y="225.8" class="st0" width="23.9" height="98.6"></rect>
<text transform="matrix(6.123234e-17 1 -1 6.123234e-17 36.123 256.8572)" class="st1 st2 st3">SECCIÓN 21</text>
<rect id="UmdErb6xOoqakk1sXT8G" x="22.8" y="354.5" class="st0" width="27.5" height="34.6"></rect>
<text transform="matrix(6.123234e-17 1 -1 6.123234e-17 37.9414 357.6179)" class="st4"><tspan x="0" y="0" class="st1 st2 st3">SECCIÓN</tspan><tspan x="10.2" y="7.2" class="st1 st2 st3">20</tspan></text>
<rect id="ZFs8PC33NTfgCIquavxQ" x="22.8" y="394" class="st0" width="27.5" height="35.1"></rect>
<text transform="matrix(6.123234e-17 1 -1 6.123234e-17 37.9375 397.3423)" class="st4"><tspan x="0" y="0" class="st1 st2 st3">SECCIÓN</tspan><tspan x="11.1" y="7.2" class="st1 st2 st3">19</tspan></text>
<rect id="LexokkRY3Eu1I5BCD0ZE" x="26.4" y="459.7" class="st0" width="23.9" height="96.3"></rect>
<text transform="matrix(6.123234e-17 1 -1 6.123234e-17 36.127 489.5731)" class="st1 st2 st3">SECCIÓN 18</text>
<rect id="lOCxkO49KYltACJLJ6tB" x="26.4" y="560.9" class="st0" width="23.9" height="75.8"></rect>
<text transform="matrix(6.123234e-17 1 -1 6.123234e-17 36.127 580.6112)" class="st1 st2 st3">SECCIÓN 17</text>
<polygon id="BY8UkSHeqlIYnCilb9ZU" class="st5" points="211.9,127.3 293.4,127.3 293.4,89 272.6,89 272.6,84.4 211.9,84.4 "></polygon>
<text transform="matrix(1 0 0 1 238.3953 105.6051)" class="st4"><tspan x="0" y="0" class="st1 st2 st3">SECCIÓN</tspan><tspan x="11.1" y="7.2" class="st1 st2 st3">16</tspan></text>
<polygon id="MMhNQ4Vsy5IKKVw70K8Y" class="st5" points="180.5,127.3 108.4,127.3 108.4,89.8 130.1,89.8 130.1,84.4 180.5,84.4 "></polygon>
<text transform="matrix(1 0 0 1 130.1936 105.605)" class="st4"><tspan x="0" y="0" class="st1 st2 st3">SECCIÓN</tspan><tspan x="11.2" y="7.2" class="st1 st2 st3">15</tspan></text>
<path id="S22LFAhywAMknBOx1mjE" class="st0" d="M59.1,214.2h28.2l-0.1-77.4c0-5.3,4.3-9.7,9.7-9.7h7V84.4H81.4
	C69,84.4,59,94.4,59,106.8L59.1,214.2z"></path>
<text transform="matrix(6.123234e-17 1 -1 6.123234e-17 70.9551 131.0272)" class="st1 st2 st3">SECCIÓN 14</text>
<rect id="1yGsjkiYtXM3p9MRxL7a" x="59.1" y="218.6" class="st0" width="28.2" height="126.8"></rect>
<text transform="matrix(6.123234e-17 1 -1 6.123234e-17 70.9531 263.7606)" class="st1 st2 st3">SECCIÓN 13</text>
<rect id="haNJqXn5N4weRf1XT4wm" x="59.1" y="349.7" class="st0" width="28.2" height="84.3"></rect>
<text transform="matrix(6.123234e-17 1 -1 6.123234e-17 70.9531 373.6688)" class="st1 st2 st3">SECCIÓN 12</text>
<rect id="3NAlQoF3lZrrFYUJlXzA" x="59.1" y="438.3" class="st0" width="28.2" height="124.4"></rect>
<text transform="matrix(6.123234e-17 1 -1 6.123234e-17 70.957 483.0487)" class="st1 st2 st3">SECCIÓN 11</text>
<rect id="J4Wy297sFgIWC194fWGZ" x="59.1" y="567.1" class="st0" width="28.2" height="65.2"></rect>
<text transform="matrix(6.123234e-17 1 -1 6.123234e-17 70.957 581.2421)" class="st1 st2 st3">SECCIÓN 10</text>
<path id="avgHNG2YSeoNHJ1cXLGu" class="st6" d="M59.1,641v18c0,12.8,10.4,23.2,23.2,23.2h22.4v-31.3h-8.4c-4.9,0-8.9-4-8.9-8.9
	v-1L59.1,641L59.1,641z"></path>
<text transform="matrix(6.123234e-17 1 -1 6.123234e-17 79.2441 646.7669)" class="st4"><tspan x="0" y"0" class="st1 st2 st3">SECCIÓN</tspan><tspan x="12.3" y="7.2" class="st1 st2 st3">9</tspan></text>
<rect id="jAtuLT3rU165yrGw9CSt" x="109" y="651" class="st6" width="87.1" height="31.3"></rect>
<text transform="matrix(1 0 0 1 135.5701 668.856)" class="st1 st2 st3">SECCIÓN 8</text>
<rect id="tke4Fsh79wZvPIPVSsfM" x="200.5" y="651" class="st6" width="91.7" height="31.3"></rect>
<text transform="matrix(1 0 0 1 229.4051 668.856)" class="st1 st2 st3">SECCIÓN 7</text>
<path id="PgGDVLxREyMwCn3NpMgI" class="st6" d="M336.5,640.7V659c0,12.8-10.4,23.2-23.2,23.2h-16.7V651h2.6c4.9,0,8.9-4,8.9-8.9
	v-1.4L336.5,640.7L336.5,640.7z"></path>
<text transform="matrix(6.123234e-17 1 -1 6.123234e-17 320.084 646.7668)" class="st4"><tspan x="0" y="0" class="st1 st2 st3">SECCIÓN</tspan><tspan x="12.3" y="7.2" class="st1 st2 st3">6</tspan></text>
<rect id="rNH76uhEvqOxxig76L5C" x="308.1" y="566" class="st7" width="28.3" height="65.8"></rect>
<text transform="matrix(6.123234e-17 1 -1 6.123234e-17 320.084 581.9867)" class="st1 st2 st3">SECCIÓN 5</text>
<rect id="ruPOAQKXk5VhXAShQd3q" x="308.1" y="453.4" class="st7" width="28.3" height="108.2"></rect>
<text transform="matrix(6.123234e-17 1 -1 6.123234e-17 320.084 490.3674)" class="st1 st2 st3">SECCIÓN 4</text>
<rect id="5v0Yi4KtdHmvq3aSpa5V" x="308.1" y="332" class="st8" width="28.3" height="117"></rect>
<text transform="matrix(6.123234e-17 1 -1 6.123234e-17 320.084 373.5652)" class="st1 st2 st3">SECCIÓN 3</text>
<rect id="WrxywsCP7EKMColO3tJ4" x="308.1" y="217.3" class="st8" width="28.3" height="110.3"></rect>
<text transform="matrix(6.123234e-17 1 -1 6.123234e-17 320.084 255.5386)" class="st1 st2 st3">SECCIÓN 2</text>
<rect id="wKOFPUfMuN6cknhllrQ9" x="308.1" y="137.9" class="st8" width="28.3" height="75.1"></rect>
<text transform="matrix(6.123234e-17 1 -1 6.123234e-17 320.084 159.1091)" class="st1 st2 st3">SECCIÓN 1</text>
<g id="blueprint">
	<text transform="matrix(6.123234e-17 1 -1 6.123234e-17 97.0547 614.1637)" class="st9 st2 st3">ACCESO</text>
	<g>
		<g>
			<g>
				<g>
					<path class="st10" d="M299.2,651h-203c-4.9,0-8.9-4-8.9-8.9V137c0-5.3,4.3-9.7,9.7-9.7h201.4c5.3,0,9.7,4.3,9.7,9.7v505
						C308.1,647,304.1,651,299.2,651z"></path>
					<path class="st10" d="M299,648.8H96.5c-3.6,0-6.6-2.9-6.6-6.6v-505c0-3.9,3.2-7.1,7.1-7.1h201.5c3.9,0,7.1,3.2,7.1,7.1v505
						C305.6,645.9,302.6,648.8,299,648.8z"></path>
					<path class="st10" d="M104,81H80.9c-14.3,0-25.8,11.6-25.8,25.8v552.8c0,14.4,11.7,26.1,26.1,26.1h233.4
						c14.4,0,26.1-11.7,26.1-26.1V118.1c0-18.7-15.2-33.9-33.9-33.9h-3.4v35l0,0c5.3,0,9.6,4.3,9.6,9.6v9.1"></path>
					<path class="st10" d="M104,84.6H81.5c-12.3,0-22.3,10-22.3,22.3V659c0,12.8,10.4,23.2,23.2,23.2h231
						c12.8,0,23.2-10.4,23.2-23.2V122.8c0-18.4-14.9-33.2-33.2-33.2l0,0"></path>
					<path class="st10" d="M104,127.3V72.2H76.4c-5.7,0-10.4,4.6-10.4,10.4v3.1"></path>
					<polyline class="st10" points="108.4,127.3 108.4,84.6 104,84.6 					"></polyline>
					<path class="st10" d="M303.3,99.9L303.3,99.9c13.4,0,24.3,10.9,24.3,24.3v13.7"></path>
					<line class="st10" x1="308.1" y1="137.9" x2="336.5" y2="137.9"></line>
					<polyline class="st10" points="108.4,89.8 130,89.8 130,84.6 185.1,84.6 185.1,127.3 					"></polyline>
					<line class="st10" x1="180.5" y1="84.6" x2="180.5" y2="127.3"></line>
					<polyline class="st10" points="207.3,127.3 207.3,84.6 272.6,84.6 272.6,89 293.4,89 					"></polyline>
					<polyline class="st10" points="293.4,127.3 293.4,84.6 298,84.6 					"></polyline>
					<polyline class="st10" points="298,127.3 298,68.8 311,68.8 311,84.5 					"></polyline>
					<line class="st10" x1="185.1" y1="101.3" x2="207.3" y2="101.3"></line>
					<circle class="st10" cx="196.2" cy="90.5" r="6.1"></circle>
					<circle class="st10" cx="196.2" cy="90.5" r="3.5"></circle>
					<line class="st10" x1="102" y1="72.2" x2="102" y2="81"></line>
					<line class="st10" x1="97" y1="72.2" x2="97" y2="81"></line>
					<line class="st10" x1="92.1" y1="72.2" x2="92.1" y2="81"></line>
					<line class="st10" x1="87.1" y1="72.2" x2="87.1" y2="81"></line>
					<line class="st10" x1="82.2" y1="72.2" x2="82.2" y2="81"></line>
					<line class="st10" x1="77.3" y1="72.2" x2="77.3" y2="81"></line>
					<line class="st10" x1="72.3" y1="73.1" x2="72.3" y2="82.5"></line>
					<line class="st10" x1="67.4" y1="77.8" x2="67.4" y2="84.6"></line>
					<g>
						<line class="st10" x1="104" y1="85.9" x2="108.4" y2="85.9"></line>
						<line class="st10" x1="104" y1="88" x2="108.4" y2="88"></line>
						<line class="st10" x1="104" y1="90.2" x2="108.4" y2="90.2"></line>
						<line class="st10" x1="104" y1="92.4" x2="108.4" y2="92.4"></line>
						<line class="st10" x1="104" y1="94.5" x2="108.4" y2="94.5"></line>
						<line class="st10" x1="104" y1="96.7" x2="108.4" y2="96.7"></line>
						<line class="st10" x1="104" y1="98.8" x2="108.4" y2="98.8"></line>
						<line class="st10" x1="104" y1="101" x2="108.4" y2="101"></line>
						<line class="st10" x1="104" y1="103.2" x2="108.4" y2="103.2"></line>
						<line class="st10" x1="104" y1="105.3" x2="108.4" y2="105.3"></line>
						<line class="st10" x1="104" y1="107.5" x2="108.4" y2="107.5"></line>
						<line class="st10" x1="104" y1="109.6" x2="108.4" y2="109.6"></line>
						<line class="st10" x1="104" y1="111.8" x2="108.4" y2="111.8"></line>
						<line class="st10" x1="104" y1="114" x2="108.4" y2="114"></line>
						<line class="st10" x1="104" y1="116.1" x2="108.4" y2="116.1"></line>
						<line class="st10" x1="104" y1="118.3" x2="108.4" y2="118.3"></line>
						<line class="st10" x1="104" y1="120.4" x2="108.4" y2="120.4"></line>
						<line class="st10" x1="104" y1="122.6" x2="108.4" y2="122.6"></line>
						<line class="st10" x1="104" y1="124.8" x2="108.4" y2="124.8"></line>
					</g>
					<g>
						<line class="st10" x1="59.1" y1="214.2" x2="87.3" y2="214.2"></line>
						<line class="st10" x1="87.3" y1="218.6" x2="59.1" y2="218.6"></line>
						<g>
							<line class="st10" x1="60.4" y1="218.6" x2="60.4" y2="214.2"></line>
							<line class="st10" x1="62.6" y1="218.6" x2="62.6" y2="214.2"></line>
							<line class="st10" x1="64.7" y1="218.6" x2="64.7" y2="214.2"></line>
							<line class="st10" x1="66.9" y1="218.6" x2="66.9" y2="214.2"></line>
							<line class="st10" x1="69.1" y1="218.6" x2="69.1" y2="214.2"></line>
							<line class="st10" x1="71.2" y1="218.6" x2="71.2" y2="214.2"></line>
							<line class="st10" x1="73.4" y1="218.6" x2="73.4" y2="214.2"></line>
							<line class="st10" x1="75.5" y1="218.6" x2="75.5" y2="214.2"></line>
							<line class="st10" x1="77.7" y1="218.6" x2="77.7" y2="214.2"></line>
							<line class="st10" x1="79.9" y1="218.6" x2="79.9" y2="214.2"></line>
							<line class="st10" x1="82" y1="218.6" x2="82" y2="214.2"></line>
							<line class="st10" x1="84.2" y1="218.6" x2="84.2" y2="214.2"></line>
							<line class="st10" x1="86.3" y1="218.6" x2="86.3" y2="214.2"></line>
						</g>
					</g>
					<g>
						<line class="st10" x1="59.1" y1="345.3" x2="87.3" y2="345.3"></line>
						<line class="st10" x1="87.3" y1="349.7" x2="59.1" y2="349.7"></line>
						<g>
							<line class="st10" x1="60.4" y1="349.7" x2="60.4" y2="345.3"></line>
							<line class="st10" x1="62.6" y1="349.7" x2="62.6" y2="345.3"></line>
							<line class="st10" x1="64.7" y1="349.7" x2="64.7" y2="345.3"></line>
							<line class="st10" x1="66.9" y1="349.7" x2="66.9" y2="345.3"></line>
							<line class="st10" x1="69.1" y1="349.7" x2="69.1" y2="345.3"></line>
							<line class="st10" x1="71.2" y1="349.7" x2="71.2" y2="345.3"></line>
							<line class="st10" x1="73.4" y1="349.7" x2="73.4" y2="345.3"></line>
							<line class="st10" x1="75.5" y1="349.7" x2="75.5" y2="345.3"></line>
							<line class="st10" x1="77.7" y1="349.7" x2="77.7" y2="345.3"></line>
							<line class="st10" x1="79.9" y1="349.7" x2="79.9" y2="345.3"></line>
							<line class="st10" x1="82" y1="349.7" x2="82" y2="345.3"></line>
							<line class="st10" x1="84.2" y1="349.7" x2="84.2" y2="345.3"></line>
							<line class="st10" x1="86.3" y1="349.7" x2="86.3" y2="345.3"></line>
						</g>
					</g>
					<g>
						<line class="st10" x1="59.1" y1="434" x2="87.3" y2="434"></line>
						<line class="st10" x1="87.3" y1="438.3" x2="59.1" y2="438.3"></line>
						<g>
							<line class="st10" x1="60.4" y1="438.3" x2="60.4" y2="434"></line>
							<line class="st10" x1="62.6" y1="438.3" x2="62.6" y2="434"></line>
							<line class="st10" x1="64.7" y1="438.3" x2="64.7" y2="434"></line>
							<line class="st10" x1="66.9" y1="438.3" x2="66.9" y2="434"></line>
							<line class="st10" x1="69.1" y1="438.3" x2="69.1" y2="434"></line>
							<line class="st10" x1="71.2" y1="438.3" x2="71.2" y2="434"></line>
							<line class="st10" x1="73.4" y1="438.3" x2="73.4" y2="434"></line>
							<line class="st10" x1="75.5" y1="438.3" x2="75.5" y2="434"></line>
							<line class="st10" x1="77.7" y1="438.3" x2="77.7" y2="434"></line>
							<line class="st10" x1="79.9" y1="438.3" x2="79.9" y2="434"></line>
							<line class="st10" x1="82" y1="438.3" x2="82" y2="434"></line>
							<line class="st10" x1="84.2" y1="438.3" x2="84.2" y2="434"></line>
							<line class="st10" x1="86.3" y1="438.3" x2="86.3" y2="434"></line>
						</g>
					</g>
					<g>
						<line class="st10" x1="59.1" y1="562.8" x2="87.3" y2="562.8"></line>
						<line class="st10" x1="87.3" y1="567.1" x2="59.1" y2="567.1"></line>
						<g>
							<line class="st10" x1="60.4" y1="567.1" x2="60.4" y2="562.8"></line>
							<line class="st10" x1="62.6" y1="567.1" x2="62.6" y2="562.8"></line>
							<line class="st10" x1="64.7" y1="567.1" x2="64.7" y2="562.8"></line>
							<line class="st10" x1="66.9" y1="567.1" x2="66.9" y2="562.8"></line>
							<line class="st10" x1="69.1" y1="567.1" x2="69.1" y2="562.8"></line>
							<line class="st10" x1="71.2" y1="567.1" x2="71.2" y2="562.8"></line>
							<line class="st10" x1="73.4" y1="567.1" x2="73.4" y2="562.8"></line>
							<line class="st10" x1="75.5" y1="567.1" x2="75.5" y2="562.8"></line>
							<line class="st10" x1="77.7" y1="567.1" x2="77.7" y2="562.8"></line>
							<line class="st10" x1="79.9" y1="567.1" x2="79.9" y2="562.8"></line>
							<line class="st10" x1="82" y1="567.1" x2="82" y2="562.8"></line>
							<line class="st10" x1="84.2" y1="567.1" x2="84.2" y2="562.8"></line>
							<line class="st10" x1="86.3" y1="567.1" x2="86.3" y2="562.8"></line>
						</g>
					</g>
					<g>
						<line class="st10" x1="109" y1="651" x2="109" y2="682.2"></line>
						<line class="st10" x1="104.7" y1="682.2" x2="104.7" y2="651"></line>
						<g>
							<line class="st10" x1="104.7" y1="655.6" x2="109" y2="655.6"></line>
							<line class="st10" x1="104.7" y1="657.6" x2="109" y2="657.6"></line>
							<line class="st10" x1="104.7" y1="659.6" x2="109" y2="659.6"></line>
							<line class="st10" x1="104.7" y1="661.6" x2="109" y2="661.6"></line>
							<line class="st10" x1="104.7" y1="663.6" x2="109" y2="663.6"></line>
							<line class="st10" x1="104.7" y1="665.6" x2="109" y2="665.6"></line>
							<line class="st10" x1="104.7" y1="667.6" x2="109" y2="667.6"></line>
							<line class="st10" x1="104.7" y1="669.6" x2="109" y2="669.6"></line>
							<line class="st10" x1="104.7" y1="671.6" x2="109" y2="671.6"></line>
							<line class="st10" x1="104.7" y1="673.6" x2="109" y2="673.6"></line>
							<line class="st10" x1="104.7" y1="675.6" x2="109" y2="675.6"></line>
							<line class="st10" x1="104.7" y1="677.6" x2="109" y2="677.6"></line>
							<line class="st10" x1="104.7" y1="653.6" x2="109" y2="653.6"></line>
							<line class="st10" x1="104.7" y1="679.6" x2="109" y2="679.6"></line>
						</g>
					</g>
					<g>
						<line class="st10" x1="200.5" y1="651" x2="200.5" y2="682.2"></line>
						<line class="st10" x1="196.1" y1="682.2" x2="196.1" y2="651"></line>
						<g>
							<line class="st10" x1="196.1" y1="655.6" x2="200.5" y2="655.6"></line>
							<line class="st10" x1="196.1" y1="657.6" x2="200.5" y2="657.6"></line>
							<line class="st10" x1="196.1" y1="659.6" x2="200.5" y2="659.6"></line>
							<line class="st10" x1="196.1" y1="661.6" x2="200.5" y2="661.6"></line>
							<line class="st10" x1="196.1" y1="663.6" x2="200.5" y2="663.6"></line>
							<line class="st10" x1="196.1" y1="665.6" x2="200.5" y2="665.6"></line>
							<line class="st10" x1="196.1" y1="667.6" x2="200.5" y2="667.6"></line>
							<line class="st10" x1="196.1" y1="669.6" x2="200.5" y2="669.6"></line>
							<line class="st10" x1="196.1" y1="671.6" x2="200.5" y2="671.6"></line>
							<line class="st10" x1="196.1" y1="673.6" x2="200.5" y2="673.6"></line>
							<line class="st10" x1="196.1" y1="675.6" x2="200.5" y2="675.6"></line>
							<line class="st10" x1="196.1" y1="677.6" x2="200.5" y2="677.6"></line>
							<line class="st10" x1="196.1" y1="653.6" x2="200.5" y2="653.6"></line>
							<line class="st10" x1="196.1" y1="679.6" x2="200.5" y2="679.6"></line>
						</g>
					</g>
					<g>
						<line class="st10" x1="296.6" y1="651" x2="296.6" y2="682.2"></line>
						<line class="st10" x1="292.2" y1="682.2" x2="292.2" y2="651"></line>
						<g>
							<line class="st10" x1="292.2" y1="655.6" x2="296.6" y2="655.6"></line>
							<line class="st10" x1="292.2" y1="657.6" x2="296.6" y2="657.6"></line>
							<line class="st10" x1="292.2" y1="659.6" x2="296.6" y2="659.6"></line>
							<line class="st10" x1="292.2" y1="661.6" x2="296.6" y2="661.6"></line>
							<line class="st10" x1="292.2" y1="663.6" x2="296.6" y2="663.6"></line>
							<line class="st10" x1="292.2" y1="665.6" x2="296.6" y2="665.6"></line>
							<line class="st10" x1="292.2" y1="667.6" x2="296.6" y2="667.6"></line>
							<line class="st10" x1="292.2" y1="669.6" x2="296.6" y2="669.6"></line>
							<line class="st10" x1="292.2" y1="671.6" x2="296.6" y2="671.6"></line>
							<line class="st10" x1="292.2" y1="673.6" x2="296.6" y2="673.6"></line>
							<line class="st10" x1="292.2" y1="675.6" x2="296.6" y2="675.6"></line>
							<line class="st10" x1="292.2" y1="677.6" x2="296.6" y2="677.6"></line>
							<line class="st10" x1="292.2" y1="653.6" x2="296.6" y2="653.6"></line>
							<line class="st10" x1="292.2" y1="679.6" x2="296.6" y2="679.6"></line>
						</g>
					</g>
					<g>
						<line class="st10" x1="59.1" y1="632.3" x2="87.3" y2="632.3"></line>
						<line class="st10" x1="87.3" y1="636.7" x2="59.1" y2="636.7"></line>
						<g>
							<line class="st10" x1="60.4" y1="636.7" x2="60.4" y2="632.3"></line>
							<line class="st10" x1="62.6" y1="636.7" x2="62.6" y2="632.3"></line>
							<line class="st10" x1="64.7" y1="636.7" x2="64.7" y2="632.3"></line>
							<line class="st10" x1="66.9" y1="636.7" x2="66.9" y2="632.3"></line>
							<line class="st10" x1="69.1" y1="636.7" x2="69.1" y2="632.3"></line>
							<line class="st10" x1="71.2" y1="636.7" x2="71.2" y2="632.3"></line>
							<line class="st10" x1="73.4" y1="636.7" x2="73.4" y2="632.3"></line>
							<line class="st10" x1="75.5" y1="636.7" x2="75.5" y2="632.3"></line>
							<line class="st10" x1="77.7" y1="636.7" x2="77.7" y2="632.3"></line>
							<line class="st10" x1="79.9" y1="636.7" x2="79.9" y2="632.3"></line>
							<line class="st10" x1="82" y1="636.7" x2="82" y2="632.3"></line>
							<line class="st10" x1="84.2" y1="636.7" x2="84.2" y2="632.3"></line>
							<line class="st10" x1="86.3" y1="636.7" x2="86.3" y2="632.3"></line>
						</g>
					</g>
					<g>
						<line class="st10" x1="59.1" y1="636.7" x2="87.3" y2="636.7"></line>
						<line class="st10" x1="87.3" y1="641.1" x2="59.1" y2="641.1"></line>
						<g>
							<line class="st10" x1="60.4" y1="641.1" x2="60.4" y2="636.7"></line>
							<line class="st10" x1="62.6" y1="641.1" x2="62.6" y2="636.7"></line>
							<line class="st10" x1="64.7" y1="641.1" x2="64.7" y2="636.7"></line>
							<line class="st10" x1="66.9" y1="641.1" x2="66.9" y2="636.7"></line>
							<line class="st10" x1="69.1" y1="641.1" x2="69.1" y2="636.7"></line>
							<line class="st10" x1="71.2" y1="641.1" x2="71.2" y2="636.7"></line>
							<line class="st10" x1="73.4" y1="641.1" x2="73.4" y2="636.7"></line>
							<line class="st10" x1="75.5" y1="641.1" x2="75.5" y2="636.7"></line>
							<line class="st10" x1="77.7" y1="641.1" x2="77.7" y2="636.7"></line>
							<line class="st10" x1="79.9" y1="641.1" x2="79.9" y2="636.7"></line>
							<line class="st10" x1="82" y1="641.1" x2="82" y2="636.7"></line>
							<line class="st10" x1="84.2" y1="641.1" x2="84.2" y2="636.7"></line>
							<line class="st10" x1="86.3" y1="641.1" x2="86.3" y2="636.7"></line>
						</g>
					</g>
					<g>
						<line class="st10" x1="308.2" y1="213" x2="336.4" y2="213"></line>
						<line class="st10" x1="336.4" y1="217.3" x2="308.2" y2="217.3"></line>
						<g>
							<line class="st10" x1="309.5" y1="217.3" x2="309.5" y2="213"></line>
							<line class="st10" x1="311.7" y1="217.3" x2="311.7" y2="213"></line>
							<line class="st10" x1="313.9" y1="217.3" x2="313.9" y2="213"></line>
							<line class="st10" x1="316" y1="217.3" x2="316" y2="213"></line>
							<line class="st10" x1="318.2" y1="217.3" x2="318.2" y2="213"></line>
							<line class="st10" x1="320.3" y1="217.3" x2="320.3" y2="213"></line>
							<line class="st10" x1="322.5" y1="217.3" x2="322.5" y2="213"></line>
							<line class="st10" x1="324.7" y1="217.3" x2="324.7" y2="213"></line>
							<line class="st10" x1="326.8" y1="217.3" x2="326.8" y2="213"></line>
							<line class="st10" x1="329" y1="217.3" x2="329" y2="213"></line>
							<line class="st10" x1="331.1" y1="217.3" x2="331.1" y2="213"></line>
							<line class="st10" x1="333.3" y1="217.3" x2="333.3" y2="213"></line>
							<line class="st10" x1="335.5" y1="217.3" x2="335.5" y2="213"></line>
						</g>
					</g>
					<g>
						<line class="st10" x1="308.2" y1="327.7" x2="336.4" y2="327.7"></line>
						<line class="st10" x1="336.4" y1="332" x2="308.2" y2="332"></line>
						<g>
							<line class="st10" x1="309.5" y1="332" x2="309.5" y2="327.7"></line>
							<line class="st10" x1="311.7" y1="332" x2="311.7" y2="327.7"></line>
							<line class="st10" x1="313.9" y1="332" x2="313.9" y2="327.7"></line>
							<line class="st10" x1="316" y1="332" x2="316" y2="327.7"></line>
							<line class="st10" x1="318.2" y1="332" x2="318.2" y2="327.7"></line>
							<line class="st10" x1="320.3" y1="332" x2="320.3" y2="327.7"></line>
							<line class="st10" x1="322.5" y1="332" x2="322.5" y2="327.7"></line>
							<line class="st10" x1="324.7" y1="332" x2="324.7" y2="327.7"></line>
							<line class="st10" x1="326.8" y1="332" x2="326.8" y2="327.7"></line>
							<line class="st10" x1="329" y1="332" x2="329" y2="327.7"></line>
							<line class="st10" x1="331.1" y1="332" x2="331.1" y2="327.7"></line>
							<line class="st10" x1="333.3" y1="332" x2="333.3" y2="327.7"></line>
							<line class="st10" x1="335.5" y1="332" x2="335.5" y2="327.7"></line>
						</g>
					</g>
					<g>
						<line class="st10" x1="308.2" y1="449.1" x2="336.4" y2="449.1"></line>
						<line class="st10" x1="336.4" y1="453.4" x2="308.2" y2="453.4"></line>
						<g>
							<line class="st10" x1="309.5" y1="453.4" x2="309.5" y2="449.1"></line>
							<line class="st10" x1="311.7" y1="453.4" x2="311.7" y2="449.1"></line>
							<line class="st10" x1="313.9" y1="453.4" x2="313.9" y2="449.1"></line>
							<line class="st10" x1="316" y1="453.4" x2="316" y2="449.1"></line>
							<line class="st10" x1="318.2" y1="453.4" x2="318.2" y2="449.1"></line>
							<line class="st10" x1="320.3" y1="453.4" x2="320.3" y2="449.1"></line>
							<line class="st10" x1="322.5" y1="453.4" x2="322.5" y2="449.1"></line>
							<line class="st10" x1="324.7" y1="453.4" x2="324.7" y2="449.1"></line>
							<line class="st10" x1="326.8" y1="453.4" x2="326.8" y2="449.1"></line>
							<line class="st10" x1="329" y1="453.4" x2="329" y2="449.1"></line>
							<line class="st10" x1="331.1" y1="453.4" x2="331.1" y2="449.1"></line>
							<line class="st10" x1="333.3" y1="453.4" x2="333.3" y2="449.1"></line>
							<line class="st10" x1="335.5" y1="453.4" x2="335.5" y2="449.1"></line>
						</g>
					</g>
					<g>
						<line class="st10" x1="308.2" y1="561.7" x2="336.4" y2="561.7"></line>
						<line class="st10" x1="336.4" y1="566" x2="308.2" y2="566"></line>
						<g>
							<line class="st10" x1="309.5" y1="566" x2="309.5" y2="561.7"></line>
							<line class="st10" x1="311.7" y1="566" x2="311.7" y2="561.7"></line>
							<line class="st10" x1="313.9" y1="566" x2="313.9" y2="561.7"></line>
							<line class="st10" x1="316" y1="566" x2="316" y2="561.7"></line>
							<line class="st10" x1="318.2" y1="566" x2="318.2" y2="561.7"></line>
							<line class="st10" x1="320.3" y1="566" x2="320.3" y2="561.7"></line>
							<line class="st10" x1="322.5" y1="566" x2="322.5" y2="561.7"></line>
							<line class="st10" x1="324.7" y1="566" x2="324.7" y2="561.7"></line>
							<line class="st10" x1="326.8" y1="566" x2="326.8" y2="561.7"></line>
							<line class="st10" x1="329" y1="566" x2="329" y2="561.7"></line>
							<line class="st10" x1="331.1" y1="566" x2="331.1" y2="561.7"></line>
							<line class="st10" x1="333.3" y1="566" x2="333.3" y2="561.7"></line>
							<line class="st10" x1="335.5" y1="566" x2="335.5" y2="561.7"></line>
						</g>
					</g>
					<g>
						<g>
							<line class="st10" x1="308.2" y1="632" x2="336.4" y2="632"></line>
							<line class="st10" x1="336.4" y1="636.3" x2="308.2" y2="636.3"></line>
							<g>
								<line class="st10" x1="309.5" y1="636.3" x2="309.5" y2="632"></line>
								<line class="st10" x1="311.7" y1="636.3" x2="311.7" y2="632"></line>
								<line class="st10" x1="313.9" y1="636.3" x2="313.9" y2="632"></line>
								<line class="st10" x1="316" y1="636.3" x2="316" y2="632"></line>
								<line class="st10" x1="318.2" y1="636.3" x2="318.2" y2="632"></line>
								<line class="st10" x1="320.3" y1="636.3" x2="320.3" y2="632"></line>
								<line class="st10" x1="322.5" y1="636.3" x2="322.5" y2="632"></line>
								<line class="st10" x1="324.7" y1="636.3" x2="324.7" y2="632"></line>
								<line class="st10" x1="326.8" y1="636.3" x2="326.8" y2="632"></line>
								<line class="st10" x1="329" y1="636.3" x2="329" y2="632"></line>
								<line class="st10" x1="331.1" y1="636.3" x2="331.1" y2="632"></line>
								<line class="st10" x1="333.3" y1="636.3" x2="333.3" y2="632"></line>
								<line class="st10" x1="335.5" y1="636.3" x2="335.5" y2="632"></line>
							</g>
						</g>
						<g>
							<line class="st10" x1="308.2" y1="636.3" x2="336.4" y2="636.3"></line>
							<line class="st10" x1="336.4" y1="640.7" x2="308.2" y2="640.7"></line>
							<g>
								<line class="st10" x1="309.5" y1="640.7" x2="309.5" y2="636.3"></line>
								<line class="st10" x1="311.7" y1="640.7" x2="311.7" y2="636.3"></line>
								<line class="st10" x1="313.9" y1="640.7" x2="313.9" y2="636.3"></line>
								<line class="st10" x1="316" y1="640.7" x2="316" y2="636.3"></line>
								<line class="st10" x1="318.2" y1="640.7" x2="318.2" y2="636.3"></line>
								<line class="st10" x1="320.3" y1="640.7" x2="320.3" y2="636.3"></line>
								<line class="st10" x1="322.5" y1="640.7" x2="322.5" y2="636.3"></line>
								<line class="st10" x1="324.7" y1="640.7" x2="324.7" y2="636.3"></line>
								<line class="st10" x1="326.8" y1="640.7" x2="326.8" y2="636.3"></line>
								<line class="st10" x1="329" y1="640.7" x2="329" y2="636.3"></line>
								<line class="st10" x1="331.1" y1="640.7" x2="331.1" y2="636.3"></line>
								<line class="st10" x1="333.3" y1="640.7" x2="333.3" y2="636.3"></line>
								<line class="st10" x1="335.5" y1="640.7" x2="335.5" y2="636.3"></line>
							</g>
						</g>
					</g>
					<g>
						<line class="st10" x1="180.6" y1="85.9" x2="185" y2="85.9"></line>
						<line class="st10" x1="180.6" y1="88" x2="185" y2="88"></line>
						<line class="st10" x1="180.6" y1="90.2" x2="185" y2="90.2"></line>
						<line class="st10" x1="180.6" y1="92.4" x2="185" y2="92.4"></line>
						<line class="st10" x1="180.6" y1="94.5" x2="185" y2="94.5"></line>
						<line class="st10" x1="180.6" y1="96.7" x2="185" y2="96.7"></line>
						<line class="st10" x1="180.6" y1="98.8" x2="185" y2="98.8"></line>
						<line class="st10" x1="180.6" y1="101" x2="185" y2="101"></line>
						<line class="st10" x1="180.6" y1="103.2" x2="185" y2="103.2"></line>
						<line class="st10" x1="180.6" y1="105.3" x2="185" y2="105.3"></line>
						<line class="st10" x1="180.6" y1="107.5" x2="185" y2="107.5"></line>
						<line class="st10" x1="180.6" y1="109.6" x2="185" y2="109.6"></line>
						<line class="st10" x1="180.6" y1="111.8" x2="185" y2="111.8"></line>
						<line class="st10" x1="180.6" y1="114" x2="185" y2="114"></line>
						<line class="st10" x1="180.6" y1="116.1" x2="185" y2="116.1"></line>
						<line class="st10" x1="180.6" y1="118.3" x2="185" y2="118.3"></line>
						<line class="st10" x1="180.6" y1="120.4" x2="185" y2="120.4"></line>
						<line class="st10" x1="180.6" y1="122.6" x2="185" y2="122.6"></line>
						<line class="st10" x1="180.6" y1="124.8" x2="185" y2="124.8"></line>
					</g>
					<line class="st10" x1="211.9" y1="84.6" x2="211.9" y2="127.3"></line>
					<g>
						<line class="st10" x1="211.7" y1="85.9" x2="207.3" y2="85.9"></line>
						<line class="st10" x1="211.7" y1="88" x2="207.3" y2="88"></line>
						<line class="st10" x1="211.7" y1="90.2" x2="207.3" y2="90.2"></line>
						<line class="st10" x1="211.7" y1="92.4" x2="207.3" y2="92.4"></line>
						<line class="st10" x1="211.7" y1="94.5" x2="207.3" y2="94.5"></line>
						<line class="st10" x1="211.7" y1="96.7" x2="207.3" y2="96.7"></line>
						<line class="st10" x1="211.7" y1="98.8" x2="207.3" y2="98.8"></line>
						<line class="st10" x1="211.7" y1="101" x2="207.3" y2="101"></line>
						<line class="st10" x1="211.7" y1="103.2" x2="207.3" y2="103.2"></line>
						<line class="st10" x1="211.7" y1="105.3" x2="207.3" y2="105.3"></line>
						<line class="st10" x1="211.7" y1="107.5" x2="207.3" y2="107.5"></line>
						<line class="st10" x1="211.7" y1="109.6" x2="207.3" y2="109.6"></line>
						<line class="st10" x1="211.7" y1="111.8" x2="207.3" y2="111.8"></line>
						<line class="st10" x1="211.7" y1="114" x2="207.3" y2="114"></line>
						<line class="st10" x1="211.7" y1="116.1" x2="207.3" y2="116.1"></line>
						<line class="st10" x1="211.7" y1="118.3" x2="207.3" y2="118.3"></line>
						<line class="st10" x1="211.7" y1="120.4" x2="207.3" y2="120.4"></line>
						<line class="st10" x1="211.7" y1="122.6" x2="207.3" y2="122.6"></line>
						<line class="st10" x1="211.7" y1="124.8" x2="207.3" y2="124.8"></line>
					</g>
					<g>
						<line class="st10" x1="297.9" y1="85.9" x2="293.5" y2="85.9"></line>
						<line class="st10" x1="297.9" y1="88" x2="293.5" y2="88"></line>
						<line class="st10" x1="297.9" y1="90.2" x2="293.5" y2="90.2"></line>
						<line class="st10" x1="297.9" y1="92.4" x2="293.5" y2="92.4"></line>
						<line class="st10" x1="297.9" y1="94.5" x2="293.5" y2="94.5"></line>
						<line class="st10" x1="297.9" y1="96.7" x2="293.5" y2="96.7"></line>
						<line class="st10" x1="297.9" y1="98.8" x2="293.5" y2="98.8"></line>
						<line class="st10" x1="297.9" y1="101" x2="293.5" y2="101"></line>
						<line class="st10" x1="297.9" y1="103.2" x2="293.5" y2="103.2"></line>
						<line class="st10" x1="297.9" y1="105.3" x2="293.5" y2="105.3"></line>
						<line class="st10" x1="297.9" y1="107.5" x2="293.5" y2="107.5"></line>
						<line class="st10" x1="297.9" y1="109.6" x2="293.5" y2="109.6"></line>
						<line class="st10" x1="297.9" y1="111.8" x2="293.5" y2="111.8"></line>
						<line class="st10" x1="297.9" y1="114" x2="293.5" y2="114"></line>
						<line class="st10" x1="297.9" y1="116.1" x2="293.5" y2="116.1"></line>
						<line class="st10" x1="297.9" y1="118.3" x2="293.5" y2="118.3"></line>
						<line class="st10" x1="297.9" y1="120.4" x2="293.5" y2="120.4"></line>
						<line class="st10" x1="297.9" y1="122.6" x2="293.5" y2="122.6"></line>
						<line class="st10" x1="297.9" y1="124.8" x2="293.5" y2="124.8"></line>
					</g>
					<polyline class="st10" points="55.1,659.6 50.4,659.6 50.4,114.1 55.1,114.1 					"></polyline>
					<g>
						<line class="st10" x1="50.4" y1="643.8" x2="55.1" y2="643.8"></line>
						<line class="st10" x1="50.4" y1="645.7" x2="55.1" y2="645.7"></line>
						<line class="st10" x1="50.4" y1="647.7" x2="55.1" y2="647.7"></line>
						<line class="st10" x1="50.4" y1="649.6" x2="55.1" y2="649.6"></line>
						<line class="st10" x1="50.4" y1="651.6" x2="55.1" y2="651.6"></line>
						<line class="st10" x1="50.4" y1="653.5" x2="55.1" y2="653.5"></line>
						<line class="st10" x1="50.4" y1="655.4" x2="55.1" y2="655.4"></line>
						<line class="st10" x1="50.4" y1="657.4" x2="55.1" y2="657.4"></line>
					</g>
					<g>
						<line class="st10" x1="50.4" y1="116.3" x2="55.1" y2="116.3"></line>
						<line class="st10" x1="50.4" y1="118.3" x2="55.1" y2="118.3"></line>
						<line class="st10" x1="50.4" y1="120.2" x2="55.1" y2="120.2"></line>
						<line class="st10" x1="50.4" y1="122.2" x2="55.1" y2="122.2"></line>
						<line class="st10" x1="50.4" y1="124.1" x2="55.1" y2="124.1"></line>
						<line class="st10" x1="50.4" y1="126" x2="55.1" y2="126"></line>
						<line class="st10" x1="50.4" y1="128" x2="55.1" y2="128"></line>
						<line class="st10" x1="50.4" y1="129.9" x2="55.1" y2="129.9"></line>
					</g>
					<g>
						<line class="st10" x1="50.4" y1="132" x2="55.1" y2="132"></line>
						<line class="st10" x1="50.4" y1="133.9" x2="55.1" y2="133.9"></line>
						<line class="st10" x1="50.4" y1="135.9" x2="55.1" y2="135.9"></line>
						<line class="st10" x1="50.4" y1="137.8" x2="55.1" y2="137.8"></line>
						<line class="st10" x1="50.4" y1="139.8" x2="55.1" y2="139.8"></line>
						<line class="st10" x1="50.4" y1="141.7" x2="55.1" y2="141.7"></line>
						<line class="st10" x1="26.4" y1="143.6" x2="55.1" y2="143.6"></line>
					</g>
					<polyline class="st10" points="50.4,138.8 26.4,138.8 26.4,329.3 50.4,329.3 					"></polyline>
					<g>
						<line class="st10" x1="28.5" y1="138.8" x2="28.5" y2="143.6"></line>
						<line class="st10" x1="30.7" y1="138.8" x2="30.7" y2="143.6"></line>
						<line class="st10" x1="32.9" y1="138.8" x2="32.9" y2="143.6"></line>
						<line class="st10" x1="35.1" y1="138.8" x2="35.1" y2="143.6"></line>
						<line class="st10" x1="37.3" y1="138.8" x2="37.3" y2="143.6"></line>
						<line class="st10" x1="39.4" y1="138.8" x2="39.4" y2="143.6"></line>
						<line class="st10" x1="41.6" y1="138.8" x2="41.6" y2="143.6"></line>
						<line class="st10" x1="43.8" y1="138.8" x2="43.8" y2="143.6"></line>
						<line class="st10" x1="46" y1="138.8" x2="46" y2="143.6"></line>
						<line class="st10" x1="48.2" y1="138.8" x2="48.2" y2="143.6"></line>
					</g>
					<g>
						<line class="st10" x1="28.5" y1="220.9" x2="28.5" y2="225.8"></line>
						<line class="st10" x1="30.7" y1="220.9" x2="30.7" y2="225.8"></line>
						<line class="st10" x1="32.9" y1="220.9" x2="32.9" y2="225.8"></line>
						<line class="st10" x1="35.1" y1="220.9" x2="35.1" y2="225.8"></line>
						<line class="st10" x1="37.3" y1="220.9" x2="37.3" y2="225.8"></line>
						<line class="st10" x1="39.4" y1="220.9" x2="39.4" y2="225.8"></line>
						<line class="st10" x1="41.6" y1="220.9" x2="41.6" y2="225.8"></line>
						<line class="st10" x1="43.8" y1="220.9" x2="43.8" y2="225.8"></line>
						<line class="st10" x1="46" y1="220.9" x2="46" y2="225.8"></line>
						<line class="st10" x1="48.2" y1="220.9" x2="48.2" y2="225.8"></line>
					</g>
					<g>
						<line class="st10" x1="28.5" y1="324.5" x2="28.5" y2="329.3"></line>
						<line class="st10" x1="30.7" y1="324.5" x2="30.7" y2="329.3"></line>
						<line class="st10" x1="32.9" y1="324.5" x2="32.9" y2="329.3"></line>
						<line class="st10" x1="35.1" y1="324.5" x2="35.1" y2="329.3"></line>
						<line class="st10" x1="37.3" y1="324.5" x2="37.3" y2="329.3"></line>
						<line class="st10" x1="39.4" y1="324.5" x2="39.4" y2="329.3"></line>
						<line class="st10" x1="41.6" y1="324.5" x2="41.6" y2="329.3"></line>
						<line class="st10" x1="43.8" y1="324.5" x2="43.8" y2="329.3"></line>
						<line class="st10" x1="46" y1="324.5" x2="46" y2="329.3"></line>
						<line class="st10" x1="48.2" y1="324.5" x2="48.2" y2="329.3"></line>
					</g>
					<line class="st10" x1="26.4" y1="324.5" x2="50.4" y2="324.5"></line>
					<line class="st10" x1="26.4" y1="225.8" x2="50.4" y2="225.8"></line>
					<line class="st10" x1="26.4" y1="220.9" x2="50.4" y2="220.9"></line>
					<g>
						<line class="st10" x1="26.4" y1="459.7" x2="50.4" y2="459.7"></line>
					</g>
					<polyline class="st10" points="50.4,454.8 26.4,454.8 26.4,641.9 55.1,641.9 					"></polyline>
					<g>
						<line class="st10" x1="28.5" y1="454.8" x2="28.5" y2="459.7"></line>
						<line class="st10" x1="30.7" y1="454.8" x2="30.7" y2="459.7"></line>
						<line class="st10" x1="32.9" y1="454.8" x2="32.9" y2="459.7"></line>
						<line class="st10" x1="35.1" y1="454.8" x2="35.1" y2="459.7"></line>
						<line class="st10" x1="37.3" y1="454.8" x2="37.3" y2="459.7"></line>
						<line class="st10" x1="39.4" y1="454.8" x2="39.4" y2="459.7"></line>
						<line class="st10" x1="41.6" y1="454.8" x2="41.6" y2="459.7"></line>
						<line class="st10" x1="43.8" y1="454.8" x2="43.8" y2="459.7"></line>
						<line class="st10" x1="46" y1="454.8" x2="46" y2="459.7"></line>
						<line class="st10" x1="48.2" y1="454.8" x2="48.2" y2="459.7"></line>
					</g>
					<g>
						<line class="st10" x1="28.5" y1="556" x2="28.5" y2="560.9"></line>
						<line class="st10" x1="30.7" y1="556" x2="30.7" y2="560.9"></line>
						<line class="st10" x1="32.9" y1="556" x2="32.9" y2="560.9"></line>
						<line class="st10" x1="35.1" y1="556" x2="35.1" y2="560.9"></line>
						<line class="st10" x1="37.3" y1="556" x2="37.3" y2="560.9"></line>
						<line class="st10" x1="39.4" y1="556" x2="39.4" y2="560.9"></line>
						<line class="st10" x1="41.6" y1="556" x2="41.6" y2="560.9"></line>
						<line class="st10" x1="43.8" y1="556" x2="43.8" y2="560.9"></line>
						<line class="st10" x1="46" y1="556" x2="46" y2="560.9"></line>
						<line class="st10" x1="48.2" y1="556" x2="48.2" y2="560.9"></line>
					</g>
					<g>
						<line class="st10" x1="28.5" y1="636.7" x2="28.5" y2="641.6"></line>
						<line class="st10" x1="30.7" y1="636.7" x2="30.7" y2="641.6"></line>
						<line class="st10" x1="32.9" y1="636.7" x2="32.9" y2="641.6"></line>
						<line class="st10" x1="35.1" y1="636.7" x2="35.1" y2="641.6"></line>
						<line class="st10" x1="37.3" y1="636.7" x2="37.3" y2="641.6"></line>
						<line class="st10" x1="39.4" y1="636.7" x2="39.4" y2="641.6"></line>
						<line class="st10" x1="41.6" y1="636.7" x2="41.6" y2="641.6"></line>
						<line class="st10" x1="43.8" y1="636.7" x2="43.8" y2="641.6"></line>
						<line class="st10" x1="46" y1="636.7" x2="46" y2="641.6"></line>
						<line class="st10" x1="48.2" y1="636.7" x2="48.2" y2="641.6"></line>
					</g>
					<line class="st10" x1="26.4" y1="560.9" x2="50.4" y2="560.9"></line>
					<line class="st10" x1="26.4" y1="556" x2="50.4" y2="556"></line>
					<g>
						<g>
							<line class="st10" x1="22.8" y1="354.5" x2="50.4" y2="354.5"></line>
						</g>
						<polyline class="st10" points="50.4,349.7 18.7,349.7 18.7,434 50.4,434 						"></polyline>
						<g>
							<line class="st10" x1="28.5" y1="349.7" x2="28.5" y2="354.5"></line>
							<line class="st10" x1="25.8" y1="349.7" x2="25.8" y2="354.5"></line>
							<line class="st10" x1="30.7" y1="349.7" x2="30.7" y2="354.5"></line>
							<line class="st10" x1="32.9" y1="349.7" x2="32.9" y2="354.5"></line>
							<line class="st10" x1="35.1" y1="349.7" x2="35.1" y2="354.5"></line>
							<line class="st10" x1="37.3" y1="349.7" x2="37.3" y2="354.5"></line>
							<line class="st10" x1="39.4" y1="349.7" x2="39.4" y2="354.5"></line>
							<line class="st10" x1="41.6" y1="349.7" x2="41.6" y2="354.5"></line>
							<line class="st10" x1="43.8" y1="349.7" x2="43.8" y2="354.5"></line>
							<line class="st10" x1="46" y1="349.7" x2="46" y2="354.5"></line>
							<line class="st10" x1="48.2" y1="349.7" x2="48.2" y2="354.5"></line>
						</g>
						<g>
							<line class="st10" x1="28.5" y1="389.1" x2="28.5" y2="394"></line>
							<line class="st10" x1="25.8" y1="389.1" x2="25.8" y2="394"></line>
							<line class="st10" x1="30.7" y1="389.1" x2="30.7" y2="394"></line>
							<line class="st10" x1="32.9" y1="389.1" x2="32.9" y2="394"></line>
							<line class="st10" x1="35.1" y1="389.1" x2="35.1" y2="394"></line>
							<line class="st10" x1="37.3" y1="389.1" x2="37.3" y2="394"></line>
							<line class="st10" x1="39.4" y1="389.1" x2="39.4" y2="394"></line>
							<line class="st10" x1="41.6" y1="389.1" x2="41.6" y2="394"></line>
							<line class="st10" x1="43.8" y1="389.1" x2="43.8" y2="394"></line>
							<line class="st10" x1="46" y1="389.1" x2="46" y2="394"></line>
							<line class="st10" x1="48.2" y1="389.1" x2="48.2" y2="394"></line>
						</g>
						<g>
							<line class="st10" x1="28.5" y1="429.1" x2="28.5" y2="434"></line>
							<line class="st10" x1="25.8" y1="429.1" x2="25.8" y2="434"></line>
							<line class="st10" x1="30.7" y1="429.1" x2="30.7" y2="434"></line>
							<line class="st10" x1="32.9" y1="429.1" x2="32.9" y2="434"></line>
							<line class="st10" x1="35.1" y1="429.1" x2="35.1" y2="434"></line>
							<line class="st10" x1="37.3" y1="429.1" x2="37.3" y2="434"></line>
							<line class="st10" x1="39.4" y1="429.1" x2="39.4" y2="434"></line>
							<line class="st10" x1="41.6" y1="429.1" x2="41.6" y2="434"></line>
							<line class="st10" x1="43.8" y1="429.1" x2="43.8" y2="434"></line>
							<line class="st10" x1="46" y1="429.1" x2="46" y2="434"></line>
							<line class="st10" x1="48.2" y1="429.1" x2="48.2" y2="434"></line>
						</g>
						<line class="st10" x1="22.8" y1="429.1" x2="50.4" y2="429.1"></line>
						<line class="st10" x1="22.8" y1="394" x2="50.4" y2="394"></line>
						<line class="st10" x1="22.8" y1="389.1" x2="50.4" y2="389.1"></line>
						<line class="st10" x1="22.8" y1="349.7" x2="22.8" y2="434"></line>
					</g>
					<line class="st10" x1="26.4" y1="636.7" x2="50.4" y2="636.7"></line>
					<rect x="113.3" y="138.2" class="st10" width="164.6" height="503.4"></rect>
					<rect x="110.8" y="136.1" class="st10" width="169.6" height="507.6"></rect>
					<rect x="163.6" y="692.8" class="st10" width="69.9" height="12.3"></rect>
					<polyline class="st10" points="235.8,685.8 235.8,690.9 244.2,690.9 244.2,685.8 					"></polyline>
					<line class="st10" x1="235.8" y1="687.2" x2="244.2" y2="687.2"></line>
					<line class="st10" x1="235.8" y1="689.2" x2="244.2" y2="689.2"></line>
					<polyline class="st10" points="55.1,333 39.9,333 39.9,344.9 55.1,344.9 					"></polyline>
					<line class="st10" x1="35.1" y1="329.3" x2="35.1" y2="349.7"></line>
					<line class="st10" x1="35.1" y1="434.2" x2="35.1" y2="454.6"></line>
					<line class="st10" x1="44.9" y1="333" x2="44.9" y2="344.9"></line>
					<line class="st10" x1="43.4" y1="333" x2="43.4" y2="344.9"></line>
					<line class="st10" x1="41.8" y1="333" x2="41.8" y2="344.9"></line>
					<line class="st10" x1="49.1" y1="344.9" x2="49.1" y2="349.7"></line>
					<line class="st10" x1="47.1" y1="344.9" x2="47.1" y2="349.7"></line>
					<line class="st10" x1="45.1" y1="344.9" x2="45.1" y2="349.7"></line>
					<line class="st10" x1="43.1" y1="344.9" x2="43.1" y2="349.7"></line>
					<line class="st10" x1="41" y1="344.9" x2="41" y2="349.7"></line>
					<polyline class="st10" points="55.1,450.7 39.9,450.7 39.9,438.8 55.1,438.8 					"></polyline>
					<line class="st10" x1="44.9" y1="450.7" x2="44.9" y2="438.8"></line>
					<line class="st10" x1="43.4" y1="450.7" x2="43.4" y2="438.8"></line>
					<line class="st10" x1="41.8" y1="450.7" x2="41.8" y2="438.8"></line>
					<line class="st10" x1="49.1" y1="438.8" x2="49.1" y2="434"></line>
					<line class="st10" x1="47.1" y1="438.8" x2="47.1" y2="434"></line>
					<line class="st10" x1="45.1" y1="438.8" x2="45.1" y2="434"></line>
					<line class="st10" x1="43.1" y1="438.8" x2="43.1" y2="434"></line>
					<line class="st10" x1="41" y1="438.8" x2="41" y2="434"></line>
					<polyline class="st10" points="59.1,328.8 61.8,328.8 61.8,345.3 					"></polyline>
					<polyline class="st10" points="59.1,454.9 61.8,454.9 61.8,438.3 					"></polyline>
					<g>
						<path class="st10" d="M89.9,143.8h4.9l0,0c0,2-1.6,3.5-3.5,3.5h-1.4"></path>
						<path class="st10" d="M89.9,150.9h4.9l0,0c0-2-1.6-3.5-3.5-3.5h-1.4"></path>
					</g>
					<g>
						<path class="st10" d="M89.9,629.6h4.9l0,0c0,2-1.6,3.5-3.5,3.5h-1.4"></path>
						<path class="st10" d="M89.9,636.7h4.9l0,0c0-2-1.6-3.5-3.5-3.5h-1.4"></path>
					</g>
					<g>
						<path class="st10" d="M305.6,640.2h-4.9l0,0c0-2,1.6-3.5,3.5-3.5h1.4"></path>
						<path class="st10" d="M305.6,633.2h-4.9l0,0c0,2,1.6,3.5,3.5,3.5h1.4"></path>
					</g>
					<g>
						<path class="st10" d="M305.6,138.2h-4.9v1.3c0,2.7,2.2,4.9,4.9,4.9l0,0"></path>
					</g>
					<g>
						<path class="st10" d="M305.6,448.1h-4.9v1.3c0,2.7,2.2,4.9,4.9,4.9l0,0"></path>
					</g>
					<polyline class="st10" points="340.6,281.4 364.7,281.4 364.7,332 					"></polyline>
					<polyline class="st10" points="340.6,332 398.2,332 398.2,448.6 340.6,448.6 					"></polyline>
					<polyline class="st10" points="340.6,446 395.9,446 395.9,334.1 340.6,334.1 					"></polyline>
					<polyline class="st10" points="340.6,282.7 363.4,282.7 363.4,317.4 340.6,317.4 					"></polyline>
					<line class="st10" x1="340.6" y1="318.7" x2="364.7" y2="318.7"></line>
					<polyline class="st10" points="355,448.6 355,558.2 340.6,558.2 					"></polyline>
					<polyline class="st10" points="340.6,556 353,556 353,448.8 					"></polyline>
					<polyline class="st10" points="365.1,448.8 365.1,474.5 355,474.5 					"></polyline>
					<path class="st10" d="M298,68.8c0,0-18.6-24.7-40.8-24.7s-78.9,0-78.9,0s-32.8,0.8-74.3,28.1"></path>
					<circle class="st10" cx="186" cy="52.5" r="4.1"></circle>
					<circle class="st10" cx="200.3" cy="52.5" r="4.1"></circle>
					<circle class="st10" cx="214.6" cy="52.5" r="4.1"></circle>
					<circle class="st10" cx="229" cy="52.5" r="4.1"></circle>
					<circle class="st10" cx="243.3" cy="52.5" r="4.1"></circle>
					
						<ellipse transform="matrix(0.2298 -0.9732 0.9732 0.2298 147.3105 291.1228)" class="st10" cx="257.6" cy="52.5" rx="4.1" ry="4.1"></ellipse>
					<circle class="st10" cx="271.2" cy="58.1" r="4.1"></circle>
					<path class="st10" d="M257.2,44.1h13.1c6.1,0,12-2.1,16.7-6c3.4-2.8,6.9-6.8,9.2-12.2v40.8"></path>
					<line class="st10" x1="293.8" y1="63.9" x2="293.8" y2="30.3"></line>
					<line class="st10" x1="291.6" y1="61.6" x2="291.6" y2="33.5"></line>
					<line class="st10" x1="289.3" y1="59.4" x2="289.3" y2="35.9"></line>
					<line class="st10" x1="287.1" y1="57.4" x2="287.1" y2="38"></line>
					<line class="st10" x1="284.8" y1="55.5" x2="284.8" y2="39.7"></line>
					<line class="st10" x1="282.6" y1="53.8" x2="282.6" y2="41.1"></line>
					<line class="st10" x1="280.3" y1="52.2" x2="280.3" y2="42.1"></line>
					<line class="st10" x1="278.1" y1="50.7" x2="278.1" y2="43"></line>
					<line class="st10" x1="275.8" y1="49.4" x2="275.8" y2="43.5"></line>
					<line class="st10" x1="273.6" y1="48.2" x2="273.6" y2="43.9"></line>
					<line class="st10" x1="271.3" y1="47.2" x2="271.3" y2="44"></line>
					<line class="st10" x1="269" y1="46.3" x2="269" y2="44"></line>
					<line class="st10" x1="266.8" y1="45.6" x2="266.8" y2="44.1"></line>
					<line class="st10" x1="113.3" y1="181.4" x2="278" y2="181.4"></line>
					<line class="st10" x1="113.3" y1="202.1" x2="278" y2="202.1"></line>
					<line class="st10" x1="113.3" y1="222.9" x2="278" y2="222.9"></line>
					<line class="st10" x1="113.3" y1="243.6" x2="278" y2="243.6"></line>
					<line class="st10" x1="113.3" y1="264.3" x2="278" y2="264.3"></line>
					<line class="st10" x1="113.3" y1="285" x2="278" y2="285"></line>
					<line class="st10" x1="113.3" y1="307.1" x2="278" y2="307.1"></line>
					<line class="st10" x1="113.4" y1="328.9" x2="278" y2="328.9"></line>
					<line class="st10" x1="113.3" y1="349.4" x2="278" y2="349.4"></line>
					<line class="st10" x1="113.6" y1="369.5" x2="278.2" y2="369.5"></line>
					<line class="st10" x1="113.3" y1="390.9" x2="278" y2="390.9"></line>
					<line class="st10" x1="113.4" y1="412" x2="278.1" y2="412"></line>
					<line class="st10" x1="113.3" y1="432.8" x2="278" y2="432.8"></line>
					<line class="st10" x1="113.3" y1="453.5" x2="278" y2="453.5"></line>
					<line class="st10" x1="113.3" y1="475.1" x2="278" y2="475.1"></line>
					<line class="st10" x1="113.3" y1="496.3" x2="278" y2="496.3"></line>
					<line class="st10" x1="113.3" y1="516.1" x2="278" y2="516.1"></line>
					<line class="st10" x1="113.3" y1="536.8" x2="278" y2="536.8"></line>
					<line class="st10" x1="113.3" y1="558" x2="278" y2="558"></line>
					<line class="st10" x1="113.3" y1="579.1" x2="278" y2="579.1"></line>
					<line class="st10" x1="113.3" y1="600" x2="278" y2="600"></line>
				</g>
				<g>
					<text transform="matrix(1 0 0 1 149.5164 169.9497)" class="st9 st11 st12">UANL</text>
					<text transform="matrix(-1 0 0 -1 256.5742 611.0762)" class="st9 st11 st12">TIGRES</text>
					<g>
						<g>
							<g>
								<path class="st9" d="M129.5,219.1h8.9c-0.2-0.3-0.4-0.9-0.5-1.2h0.6c0.1,0.5,0.6,1.2,0.8,1.4v0.5h-9.8V219.1L129.5,219.1z"></path>
								<path class="st9" d="M137,228.1h-5.2c-1.8,0-2.4-0.8-2.4-1.9c0-1,0.6-1.9,2.4-1.9h5.2c1.9,0,2.4,1,2.4,1.9
									C139.4,227.2,138.9,228.1,137,228.1z M137,225.1h-5.2c-1.1,0-1.7,0.4-1.7,1.2c0,0.7,0.3,1.1,1.7,1.1h5.2
									c1.3,0,1.7-0.5,1.7-1.1C138.6,225.6,138.3,225.1,137,225.1z"></path>
							</g>
						</g>
						<g>
							<g>
								<path class="st9" d="M129.5,554.9h8.9c-0.2-0.3-0.4-0.9-0.5-1.2h0.6c0.1,0.5,0.6,1.2,0.8,1.4v0.5h-9.8V554.9L129.5,554.9z"></path>
								<path class="st9" d="M137,563.9h-5.2c-1.8,0-2.4-0.8-2.4-1.9c0-1,0.6-1.9,2.4-1.9h5.2c1.9,0,2.4,1,2.4,1.9
									C139.4,563,138.9,563.9,137,563.9z M137,560.9h-5.2c-1.1,0-1.7,0.4-1.7,1.2c0,0.7,0.3,1.1,1.7,1.1h5.2
									c1.3,0,1.7-0.5,1.7-1.1C138.6,561.3,138.3,560.9,137,560.9z"></path>
							</g>
						</g>
						<g>
							<g>
								<path class="st9" d="M129.5,258.5h0.1c1.3,0,2.5,0.7,4.4,2c1.2,0.8,1.7,1,2.8,1c1.3,0,1.9-0.2,1.9-1c0-0.8-0.6-1.1-1.5-1.1
									h-0.4v-0.7h0.4c1,0,2.1,0.3,2.1,1.8c0,1.4-1.1,1.7-2.5,1.7c-1.5,0-2.1-0.4-3.2-1.1c-1.6-1-2.6-1.7-3.5-1.8v3.1l-0.7-0.1
									L129.5,258.5L129.5,258.5z"></path>
								<path class="st9" d="M137,269.9h-5.2c-1.8,0-2.4-0.8-2.4-1.9c0-1,0.6-1.9,2.4-1.9h5.2c1.9,0,2.4,1,2.4,1.9
									C139.4,269,138.9,269.9,137,269.9z M137,266.9h-5.2c-1.1,0-1.7,0.4-1.7,1.2c0,0.7,0.3,1.1,1.7,1.1h5.2
									c1.3,0,1.7-0.5,1.7-1.1C138.6,267.4,138.3,266.9,137,266.9z"></path>
							</g>
						</g>
						<g>
							<g>
								<path class="st9" d="M129.5,510.5h0.1c1.3,0,2.5,0.7,4.4,2c1.2,0.8,1.7,1,2.8,1c1.3,0,1.9-0.2,1.9-1c0-0.8-0.6-1.1-1.5-1.1
									h-0.4v-0.7h0.4c1,0,2.1,0.3,2.1,1.8c0,1.4-1.1,1.7-2.5,1.7c-1.5,0-2.1-0.4-3.2-1.1c-1.6-1-2.6-1.7-3.5-1.8v3.1l-0.7-0.1
									L129.5,510.5L129.5,510.5z"></path>
								<path class="st9" d="M137,521.9h-5.2c-1.8,0-2.4-0.8-2.4-1.9c0-1,0.6-1.9,2.4-1.9h5.2c1.9,0,2.4,1,2.4,1.9
									C139.4,521,138.9,521.9,137,521.9z M137,518.9h-5.2c-1.1,0-1.7,0.4-1.7,1.2c0,0.7,0.3,1.1,1.7,1.1h5.2
									c1.3,0,1.7-0.5,1.7-1.1C138.6,519.4,138.3,518.9,137,518.9z"></path>
							</g>
						</g>
						<g>
							<g>
								<path class="st9" d="M137,301.4h0.2c0.8,0,2.1,0.2,2.1,1.8c0,1.2-0.8,1.7-2.1,1.7h-0.5c-1.1,0-1.6-0.3-1.8-0.9h0
									c-0.2,0.7-0.8,1.1-2.1,1.1H132c-1.5,0-2.6-0.4-2.6-2c0-1.4,0.9-1.9,2.1-1.9h0.3v0.7h-0.3c-0.9,0-1.5,0.3-1.5,1.2
									c0,0.9,0.6,1.2,1.9,1.2h0.9c1.4,0,1.7-0.5,1.7-1.4v-0.4h0.6v0.4c0,0.8,0.3,1.2,1.5,1.2h0.6c0.8,0,1.5-0.2,1.5-1
									c0-0.8-0.7-1-1.4-1H137L137,301.4L137,301.4L137,301.4z"></path>
								<path class="st9" d="M137,313h-5.2c-1.8,0-2.4-0.8-2.4-1.9c0-1,0.6-1.9,2.4-1.9h5.2c1.9,0,2.4,1,2.4,1.9
									C139.4,312.1,138.9,313,137,313z M137,309.9h-5.2c-1.1,0-1.7,0.4-1.7,1.2c0,0.7,0.3,1.1,1.7,1.1h5.2c1.3,0,1.7-0.5,1.7-1.1
									C138.6,310.4,138.3,309.9,137,309.9z"></path>
							</g>
						</g>
						<g>
							<g>
								<path class="st9" d="M137,469.7h0.2c0.8,0,2.1,0.2,2.1,1.8c0,1.2-0.8,1.7-2.1,1.7h-0.5c-1.1,0-1.6-0.3-1.8-0.9h0
									c-0.2,0.7-0.8,1.1-2.1,1.1H132c-1.5,0-2.6-0.4-2.6-2c0-1.4,0.9-1.9,2.1-1.9h0.3v0.7h-0.3c-0.9,0-1.5,0.3-1.5,1.2
									c0,0.9,0.6,1.2,1.9,1.2h0.9c1.4,0,1.7-0.5,1.7-1.4v-0.4h0.6v0.4c0,0.8,0.3,1.2,1.5,1.2h0.6c0.8,0,1.5-0.2,1.5-1
									c0-0.8-0.7-1-1.4-1H137L137,469.7L137,469.7z"></path>
								<path class="st9" d="M137,481.2h-5.2c-1.8,0-2.4-0.8-2.4-1.9c0-1,0.6-1.9,2.4-1.9h5.2c1.9,0,2.4,1,2.4,1.9
									C139.4,480.3,138.9,481.2,137,481.2z M137,478.2h-5.2c-1.1,0-1.7,0.4-1.7,1.2c0,0.7,0.3,1.1,1.7,1.1h5.2
									c1.3,0,1.7-0.5,1.7-1.1C138.6,478.7,138.3,478.2,137,478.2z"></path>
							</g>
						</g>
						<g>
							<g>
								<path class="st9" d="M129.5,346.3h2.8v-2.8h0.5l6.4,2.6v0.9h-6.3v0.8l-0.6-0.1V347h-2.8L129.5,346.3L129.5,346.3
									L129.5,346.3z M135.7,346.3c0.9,0,1.8,0,2.7,0v0c-1.8-0.6-3.7-1.4-5.4-2v2H135.7z"></path>
								<path class="st9" d="M137,355.3h-5.2c-1.8,0-2.4-0.8-2.4-1.9c0-1,0.6-1.9,2.4-1.9h5.2c1.9,0,2.4,1,2.4,1.9
									C139.4,354.4,138.9,355.3,137,355.3z M137,352.3h-5.2c-1.1,0-1.7,0.4-1.7,1.2c0,0.7,0.3,1.1,1.7,1.1h5.2
									c1.3,0,1.7-0.5,1.7-1.1C138.6,352.8,138.3,352.3,137,352.3z"></path>
							</g>
						</g>
						<g>
							<g>
								<path class="st9" d="M129.5,430h2.8v-2.8h0.5l6.4,2.6v0.9h-6.3v0.8l-0.6-0.1v-0.7h-2.8L129.5,430L129.5,430z M135.7,430
									c0.9,0,1.8,0,2.7,0v0c-1.8-0.6-3.7-1.4-5.4-2v2L135.7,430L135.7,430z"></path>
								<path class="st9" d="M137,439h-5.2c-1.8,0-2.4-0.8-2.4-1.9c0-1,0.6-1.9,2.4-1.9h5.2c1.9,0,2.4,1,2.4,1.9
									C139.4,438.1,138.9,439,137,439z M137,436h-5.2c-1.1,0-1.7,0.4-1.7,1.2c0,0.7,0.3,1.1,1.7,1.1h5.2c1.3,0,1.7-0.5,1.7-1.1
									C138.6,436.5,138.3,436,137,436z"></path>
							</g>
						</g>
						<g>
							<g>
								<path class="st9" d="M138.6,388.5v-2.4c-0.8-0.1-2.4-0.2-3.3-0.3c0.4,0.2,0.7,0.6,0.7,1.3c0,1.3-1,1.7-2.6,1.7h-1.2
									c-1.5,0-2.8-0.3-2.8-1.9c0-1.5,1.1-1.9,2.2-1.9h0.1v0.7h-0.2c-0.7,0-1.5,0.2-1.5,1.1c0,1,0.9,1.2,1.9,1.2h1.4
									c1.2,0,1.9-0.2,1.9-1.1c0-0.7-0.4-1-1.2-1.2l0.1-0.7c1.3,0.2,4.3,0.3,5.1,0.4v3.2L138.6,388.5z"></path>
								<path class="st9" d="M137,396.6h-5.2c-1.8,0-2.4-0.8-2.4-1.9c0-1,0.6-1.9,2.4-1.9h5.2c1.9,0,2.4,1,2.4,1.9
									C139.4,395.7,138.9,396.6,137,396.6z M137,393.6h-5.2c-1.1,0-1.7,0.4-1.7,1.2c0,0.7,0.3,1.1,1.7,1.1h5.2
									c1.3,0,1.7-0.5,1.7-1.1C138.6,394.1,138.3,393.6,137,393.6z"></path>
							</g>
						</g>
					</g>
					<g>
						<g>
							<g>
								<path class="st9" d="M262.2,561.7h-8.9c0.2,0.3,0.4,0.9,0.5,1.2h-0.6c-0.1-0.5-0.6-1.2-0.8-1.4V561h9.8V561.7z"></path>
								<path class="st9" d="M254.7,552.7h5.2c1.8,0,2.4,0.8,2.4,1.9c0,1-0.6,1.9-2.4,1.9h-5.2c-1.9,0-2.4-1-2.4-1.9
									C252.3,553.6,252.8,552.7,254.7,552.7z M254.7,555.7h5.2c1.1,0,1.7-0.4,1.7-1.2c0-0.7-0.3-1.1-1.7-1.1h-5.2
									c-1.3,0-1.7,0.5-1.7,1.1C253,555.3,253.4,555.7,254.7,555.7z"></path>
							</g>
						</g>
						<g>
							<g>
								<path class="st9" d="M262.2,226h-8.9c0.2,0.3,0.4,0.9,0.5,1.2h-0.6c-0.1-0.5-0.6-1.2-0.8-1.4v-0.5h9.8V226z"></path>
								<path class="st9" d="M254.7,216.9h5.2c1.8,0,2.4,0.8,2.4,1.9c0,1-0.6,1.9-2.4,1.9h-5.2c-1.9,0-2.4-1-2.4-1.9
									C252.3,217.9,252.8,216.9,254.7,216.9z M254.7,220h5.2c1.1,0,1.7-0.4,1.7-1.2c0-0.7-0.3-1.1-1.7-1.1h-5.2
									c-1.3,0-1.7,0.5-1.7,1.1C253,219.5,253.4,220,254.7,220z"></path>
							</g>
						</g>
						<g>
							<g>
								<path class="st9" d="M262.2,522.3h-0.1c-1.3,0-2.5-0.7-4.4-2c-1.2-0.8-1.7-1-2.8-1c-1.3,0-1.9,0.2-1.9,1
									c0,0.8,0.6,1.1,1.5,1.1h0.4v0.7h-0.4c-1,0-2.1-0.3-2.1-1.8c0-1.4,1.1-1.7,2.5-1.7c1.5,0,2.1,0.4,3.2,1.1
									c1.6,1,2.6,1.7,3.5,1.8v-3.1l0.7,0.1V522.3L262.2,522.3z"></path>
								<path class="st9" d="M254.7,510.9h5.2c1.8,0,2.4,0.8,2.4,1.9c0,1-0.6,1.9-2.4,1.9h-5.2c-1.9,0-2.4-1-2.4-1.9
									C252.3,511.8,252.8,510.9,254.7,510.9z M254.7,513.9h5.2c1.1,0,1.7-0.4,1.7-1.2c0-0.7-0.3-1.1-1.7-1.1h-5.2
									c-1.3,0-1.7,0.5-1.7,1.1C253,513.4,253.4,513.9,254.7,513.9z"></path>
							</g>
						</g>
						<g>
							<g>
								<path class="st9" d="M262.2,270.3h-0.1c-1.3,0-2.5-0.7-4.4-2c-1.2-0.8-1.7-1-2.8-1c-1.3,0-1.9,0.2-1.9,1
									c0,0.8,0.6,1.1,1.5,1.1h0.4v0.7h-0.4c-1,0-2.1-0.3-2.1-1.8c0-1.4,1.1-1.7,2.5-1.7c1.5,0,2.1,0.4,3.2,1.1
									c1.6,1,2.6,1.7,3.5,1.8v-3.1l0.7,0.1V270.3L262.2,270.3z"></path>
								<path class="st9" d="M254.7,258.9h5.2c1.8,0,2.4,0.8,2.4,1.9c0,1-0.6,1.9-2.4,1.9h-5.2c-1.9,0-2.4-1-2.4-1.9
									C252.3,259.8,252.8,258.9,254.7,258.9z M254.7,261.9h5.2c1.1,0,1.7-0.4,1.7-1.2c0-0.7-0.3-1.1-1.7-1.1h-5.2
									c-1.3,0-1.7,0.5-1.7,1.1C253,261.5,253.4,261.9,254.7,261.9z"></path>
							</g>
						</g>
						<g>
							<g>
								<path class="st9" d="M254.6,480.4h-0.2c-0.8,0-2.1-0.2-2.1-1.8c0-1.2,0.8-1.7,2.1-1.7h0.5c1.1,0,1.6,0.3,1.8,0.9h0
									c0.2-0.7,0.8-1.1,2.1-1.1h0.9c1.5,0,2.6,0.4,2.6,2c0,1.4-0.9,1.9-2.1,1.9h-0.3v-0.7h0.3c0.9,0,1.5-0.3,1.5-1.2
									c0-0.9-0.6-1.2-1.9-1.2h-0.9c-1.4,0-1.7,0.5-1.7,1.4v0.4h-0.6v-0.4c0-0.8-0.3-1.2-1.5-1.2h-0.6c-0.8,0-1.5,0.2-1.5,1
									c0,0.8,0.7,1,1.4,1h0.2L254.6,480.4L254.6,480.4z"></path>
								<path class="st9" d="M254.7,468.9h5.2c1.8,0,2.4,0.8,2.4,1.9c0,1-0.6,1.9-2.4,1.9h-5.2c-1.9,0-2.4-1-2.4-1.9
									C252.3,469.8,252.8,468.9,254.7,468.9z M254.7,471.9h5.2c1.1,0,1.7-0.4,1.7-1.2c0-0.7-0.3-1.1-1.7-1.1h-5.2
									c-1.3,0-1.7,0.5-1.7,1.1C253,471.4,253.4,471.9,254.7,471.9z"></path>
							</g>
						</g>
						<g>
							<g>
								<path class="st9" d="M254.6,312.1h-0.2c-0.8,0-2.1-0.2-2.1-1.8c0-1.2,0.8-1.7,2.1-1.7h0.5c1.1,0,1.6,0.3,1.8,0.9h0
									c0.2-0.7,0.8-1.1,2.1-1.1h0.9c1.5,0,2.6,0.4,2.6,2c0,1.4-0.9,1.9-2.1,1.9h-0.3v-0.7h0.3c0.9,0,1.5-0.3,1.5-1.2
									c0-0.9-0.6-1.2-1.9-1.2h-0.9c-1.4,0-1.7,0.5-1.7,1.4v0.4h-0.6v-0.4c0-0.8-0.3-1.2-1.5-1.2h-0.6c-0.8,0-1.5,0.2-1.5,1
									c0,0.8,0.7,1,1.4,1h0.2L254.6,312.1L254.6,312.1L254.6,312.1z"></path>
								<path class="st9" d="M254.7,300.6h5.2c1.8,0,2.4,0.8,2.4,1.9c0,1-0.6,1.9-2.4,1.9h-5.2c-1.9,0-2.4-1-2.4-1.9
									C252.3,301.5,252.8,300.6,254.7,300.6z M254.7,303.6h5.2c1.1,0,1.7-0.4,1.7-1.2c0-0.7-0.3-1.1-1.7-1.1h-5.2
									c-1.3,0-1.7,0.5-1.7,1.1C253,303.1,253.4,303.6,254.7,303.6z"></path>
							</g>
						</g>
						<g>
							<g>
								<path class="st9" d="M262.2,435.5h-2.8v2.8h-0.5l-6.4-2.6v-0.9h6.3V434l0.6,0.1v0.7h2.8L262.2,435.5L262.2,435.5z
									 M256,435.5c-0.9,0-1.8,0-2.7,0v0c1.8,0.6,3.7,1.4,5.4,2v-2H256z"></path>
								<path class="st9" d="M254.7,426.5h5.2c1.8,0,2.4,0.8,2.4,1.9c0,1-0.6,1.9-2.4,1.9h-5.2c-1.9,0-2.4-1-2.4-1.9
									C252.3,427.4,252.8,426.5,254.7,426.5z M254.7,429.5h5.2c1.1,0,1.7-0.4,1.7-1.2c0-0.7-0.3-1.1-1.7-1.1h-5.2
									c-1.3,0-1.7,0.5-1.7,1.1C253,429,253.4,429.5,254.7,429.5z"></path>
							</g>
						</g>
						<g>
							<g>
								<path class="st9" d="M262.2,352.8h-2.8v2.8h-0.5l-6.4-2.6v-0.9h6.3v-0.8l0.6,0.1v0.7h2.8L262.2,352.8L262.2,352.8z
									 M256,352.8c-0.9,0-1.8,0-2.7,0v0c1.8,0.6,3.7,1.4,5.4,2v-2H256z"></path>
								<path class="st9" d="M254.7,343.8h5.2c1.8,0,2.4,0.8,2.4,1.9c0,1-0.6,1.9-2.4,1.9h-5.2c-1.9,0-2.4-1-2.4-1.9
									C252.3,344.7,252.8,343.8,254.7,343.8z M254.7,346.8h5.2c1.1,0,1.7-0.4,1.7-1.2c0-0.7-0.3-1.1-1.7-1.1h-5.2
									c-1.3,0-1.7,0.5-1.7,1.1C253,346.3,253.4,346.8,254.7,346.8z"></path>
							</g>
						</g>
						<g>
							<g>
								<path class="st9" d="M253.1,393.3v2.4c0.8,0.1,2.4,0.2,3.3,0.3c-0.4-0.2-0.7-0.6-0.7-1.3c0-1.3,1-1.7,2.6-1.7h1.2
									c1.5,0,2.8,0.3,2.8,1.9c0,1.5-1.1,1.9-2.2,1.9h-0.1v-0.7h0.2c0.7,0,1.5-0.2,1.5-1.1c0-1-0.9-1.2-1.9-1.2h-1.4
									c-1.2,0-1.9,0.2-1.9,1.1c0,0.7,0.4,1,1.2,1.2l-0.1,0.7c-1.3-0.2-4.3-0.3-5.1-0.4v-3.2L253.1,393.3z"></path>
								<path class="st9" d="M254.7,385.2h5.2c1.8,0,2.4,0.8,2.4,1.9c0,1-0.6,1.9-2.4,1.9h-5.2c-1.9,0-2.4-1-2.4-1.9
									C252.3,386.1,252.8,385.2,254.7,385.2z M254.7,388.2h5.2c1.1,0,1.7-0.4,1.7-1.2c0-0.7-0.3-1.1-1.7-1.1h-5.2
									c-1.3,0-1.7,0.5-1.7,1.1C253,387.8,253.4,388.2,254.7,388.2z"></path>
							</g>
						</g>
					</g>
				</g>
			</g>
			<g>
				<rect x="100.2" y="265.2" class="st9" width="13.1" height="231.4"></rect>
				<rect x="278" y="265.2" class="st9" width="13.1" height="231.4"></rect>
			</g>
		</g>
		<text transform="matrix(1 0 0 1 171.7283 701.8762)" class="st9 st2 st13">MARCADOR</text>
		<text transform="matrix(1 0 0 1 129.744 38.1559)" class="st9 st2 st3">ACCESO</text>
		<text transform="matrix(1 0 0 1 36.7127 82.698)" class="st9 st2 st3">ACCESO</text>
		<text transform="matrix(1 0 0 1 239.1014 701.807)" class="st9 st2 st3">ACCESO</text>
		<text transform="matrix(6.123234e-17 1 -1 6.123234e-17 292.8066 614.16)" class="st9 st2 st3">ACCESO</text>
		<text transform="matrix(6.123234e-17 1 -1 6.123234e-17 297.4512 462.203)" class="st9 st2 st3">ACCESO</text>
		<text transform="matrix(6.123234e-17 1 -1 6.123234e-17 290.8164 139.0453)" class="st9 st2 st3">ACCESO</text>
		<text transform="matrix(6.123234e-17 1 -1 6.123234e-17 98.3809 141.0386)" class="st9 st2 st3">ACCESO</text>
	</g>
</g>
</svg>
